<?xml version="1.0"?>
<svg width="512" height="512" xmlns="http://www.w3.org/2000/svg" xmlns:svg="http://www.w3.org/2000/svg">
 <g class="layer">
  <title>Layer 1</title>
  <g id="svg_10">
   <g id="svg_11">
    <path d="m-108.77057,339.9838c-2.43192,-2.2773 -5.66519,-3.53146 -9.10441,-3.53146l-148.24698,-0.00287c-0.00034,0 0,0 -0.00034,0c-7.099,0 -12.87498,5.40843 -12.87532,12.05638l-0.00238,91.16864c-0.00034,3.22055 1.33898,6.24825 3.77057,8.52555c2.43192,2.27729 5.66519,3.53146 9.10441,3.53146l14.07191,0.00032c1.37025,0 2.4812,-1.04031 2.4812,-2.32344s-1.11061,-2.32344 -2.4812,-2.32344l-14.07191,-0.00032c-2.11383,0 -4.10089,-0.77077 -5.59519,-2.17069c-1.49463,-1.3996 -2.31773,-3.26033 -2.31773,-5.23976l0.00238,-91.16927c0.00034,-4.08552 3.55035,-7.4095 7.9136,-7.4095l148.24698,0.00318c2.11383,0 4.1009,0.77109 5.59519,2.17069c1.49463,1.39961 2.31773,3.26033 2.31773,5.23976l-0.00238,91.16928c-0.00034,4.08583 -3.55034,7.41013 -7.9136,7.41013l-55.99945,-0.00128l-0.00034,0l-36.2474,-0.00095c-0.00034,0 -0.00068,0 -0.00102,0l-29.23369,-0.00064c-1.37025,0 -2.4812,1.04032 -2.4812,2.32345s1.11061,2.32344 2.4812,2.32344l25.90085,0.00063l-2.6219,8.18822l-7.43714,-0.00032c-4.39996,0 -7.97987,3.35199 -7.97987,7.47219l0,4.68189c0,1.91547 1.66422,3.47387 3.70973,3.47387l71.57348,0.00159c2.0445,0 3.70905,-1.55808 3.71007,-3.47387l0,-4.68189c0,-4.1202 -3.57957,-7.47218 -7.97953,-7.47218l-7.43714,-0.00032l-2.6219,-8.18822l52.66593,0.00127c7.099,0 12.87532,-5.40842 12.87566,-12.05638l0.0017,-91.16959c0.00034,-3.22055 -1.33898,-6.24857 -3.77057,-8.52555zm-99.50863,111.74898l30.86326,0.00063l1.69208,0l2.62155,8.18822l-37.79844,-0.00095l2.62156,-8.1879l-0.00001,0zm47.79427,12.83606c1.66388,0 3.01747,1.26753 3.01747,2.82562l0,3.50919l-69.06882,-0.00159l0,-3.5092c0,-1.55808 1.3536,-2.82562 3.01781,-2.82562c0.00034,0 0,0 0.00034,0l63.0332,0.0016z" fill="#ffffff" id="svg_12"/>
   </g>
  </g>
  <g id="svg_13">
   <g id="svg_14">
    <path d="m-122.14204,347.72229l-138.710587,-0.00345c-3.377684,0 -6.125941,2.74998 -6.126285,6.13053l-0.002072,80.56548c0,3.29914 2.682431,5.98392 5.979793,5.98427l139.003572,0.00345c3.297018,0 5.979449,-2.68478 5.979449,-5.98427l0.001718,-71.4266c0,-0.00138 0.000344,-0.00311 0.000344,-0.00449l0,-9.13404c0,-3.3809 -2.748258,-6.13088 -6.125941,-6.13088l0.00001,0zm1.093032,12.74641l-23.345938,-0.00069c-1.389807,0 -2.516621,1.12766 -2.516621,2.51851s1.126471,2.51851 2.516621,2.51851l23.345595,0.00069l-0.001729,68.91292c0,0.52226 -0.424668,0.94725 -0.94654,0.94725l-139.003228,-0.00345c-0.522559,-0.00069 -0.947227,-0.42568 -0.947227,-0.94794l0.001729,-68.91292l104.681828,0.00242c1.389474,0 2.516621,-1.12766 2.516621,-2.51851c0,-1.39086 -1.12646,-2.51851 -2.516621,-2.51851l-104.681828,-0.00207l0,-6.61519c0,-0.52813 0.375369,-0.97002 0.873455,-1.07212c0.071012,-0.01449 0.144774,-0.02242 0.220264,-0.02242l138.710244,0.00345c0.602871,0 1.093375,0.49087 1.093375,1.09419l0,6.61588z" fill="#ffffff" id="svg_15"/>
   </g>
  </g>
  <g id="svg_16"/>
  <g id="svg_17"/>
  <g id="svg_18"/>
  <g id="svg_19"/>
  <g id="svg_20"/>
  <g id="svg_21"/>
  <g id="svg_22"/>
  <g id="svg_23"/>
  <g id="svg_24"/>
  <g id="svg_25"/>
  <g id="svg_26"/>
  <g id="svg_27"/>
  <g id="svg_28"/>
  <g id="svg_29"/>
  <g id="svg_30"/>
  <g id="svg_31"/>
  <text fill="#ffffff" font-family="Monospace" font-size="24" font-weight="bold" id="svg_1" stroke="#000000" stroke-width="0" style="cursor: move;" text-anchor="middle" transform="matrix(1.04949, 0, 0, 1.67161, 6.45215, -264.541)" x="-189.094308" xml:space="preserve" y="404.235119">() =&gt; {}</text>
 </g>

</svg>